<svg width="20" height="22" viewBox="0 0 20 22" fill="none" xmlns="http://www.w3.org/2000/svg">
<path d="M19.2385 21.2449C18.7604 21.7203 18.112 21.9874 17.4359 21.9874C16.7598 21.9874 16.1113 21.7203 15.6332 21.2449L10.0011 14.8431L4.36892 21.2428C4.13289 21.4813 3.8517 21.6711 3.54157 21.801C3.23143 21.931 2.89849 21.9986 2.56195 22C2.22541 22.0013 1.89192 21.9364 1.58074 21.809C1.26955 21.6815 0.986812 21.4941 0.748839 21.2574C0.510866 21.0208 0.322365 20.7396 0.194208 20.4301C0.0660513 20.1207 0.000775152 19.789 0.00214552 19.4543C0.00351589 19.1197 0.0715052 18.7886 0.202192 18.4801C0.332879 18.1717 0.523677 17.8921 0.76358 17.6574L6.62305 11.0021L0.761456 4.34263C0.521552 4.10791 0.330754 3.82827 0.200068 3.51986C0.0693809 3.21144 0.0013915 2.88034 2.11369e-05 2.54566C-0.00134923 2.21098 0.0639269 1.87934 0.192084 1.56988C0.32024 1.26041 0.508742 0.979239 0.746715 0.742583C0.984688 0.505926 1.26742 0.318468 1.57861 0.191021C1.8898 0.0635732 2.22328 -0.00134176 2.55982 2.102e-05C2.89637 0.0013838 3.22931 0.0689969 3.53944 0.198961C3.84958 0.328924 4.13077 0.518667 4.36679 0.757242L10.0011 7.16108L15.6332 0.757242C15.8692 0.518667 16.1504 0.328924 16.4606 0.198961C16.7707 0.0689969 17.1036 0.0013838 17.4402 2.102e-05C17.7767 -0.00134176 18.1102 0.0635732 18.4214 0.191021C18.7326 0.318468 19.0153 0.505926 19.2533 0.742583C19.4913 0.979239 19.6798 1.26041 19.8079 1.56988C19.9361 1.87934 20.0013 2.21098 20 2.54566C19.9986 2.88034 19.9306 3.21144 19.7999 3.51986C19.6692 3.82827 19.4784 4.10791 19.2385 4.34263L13.3791 11.0021L19.2385 17.6574C19.4756 17.8928 19.6636 18.1725 19.7919 18.4802C19.9202 18.788 19.9863 19.1179 19.9863 19.4511C19.9863 19.7843 19.9202 20.1142 19.7919 20.422C19.6636 20.7298 19.4756 21.0094 19.2385 21.2449Z" fill="#DE2300"/>
</svg>
