<svg width="40" height="33" viewBox="0 0 40 33" fill="none" xmlns="http://www.w3.org/2000/svg">
<g filter="url(#filter0_d_263_404)">
<path d="M25.6777 20.8333L23.7402 25L27.6152 25C31.8971 25 35.3652 19.1875 35.3652 14.5833L35.3652 0L21.8027 -1.18567e-06L21.8027 14.5833L29.5527 14.5833C29.5527 20.8333 25.6777 20.8333 25.6777 20.8333ZM12.1152 14.5833C12.1152 20.8333 8.24023 20.8333 8.24023 20.8333L6.30273 25L10.1777 25C14.4596 25 17.9277 19.1875 17.9277 14.5833L17.9277 -1.52443e-06L4.36523 -2.71011e-06L4.36523 14.5833L12.1152 14.5833Z" fill="#DE2300"/>
</g>
<defs>
<filter id="filter0_d_263_404" x="0.365234" y="0" width="39" height="33" filterUnits="userSpaceOnUse" color-interpolation-filters="sRGB">
<feFlood flood-opacity="0" result="BackgroundImageFix"/>
<feColorMatrix in="SourceAlpha" type="matrix" values="0 0 0 0 0 0 0 0 0 0 0 0 0 0 0 0 0 0 127 0" result="hardAlpha"/>
<feOffset dy="4"/>
<feGaussianBlur stdDeviation="2"/>
<feComposite in2="hardAlpha" operator="out"/>
<feColorMatrix type="matrix" values="0 0 0 0 0 0 0 0 0 0 0 0 0 0 0 0 0 0 0.25 0"/>
<feBlend mode="normal" in2="BackgroundImageFix" result="effect1_dropShadow_263_404"/>
<feBlend mode="normal" in="SourceGraphic" in2="effect1_dropShadow_263_404" result="shape"/>
</filter>
</defs>
</svg>
