<svg width="71" height="71" viewBox="0 0 71 71" fill="none" xmlns="http://www.w3.org/2000/svg">
<path d="M13.125 17.7375H46.875V13.9875H13.125V17.7375ZM13.125 31.875H32.4525C33.125 31.145 33.8475 30.4638 34.62 29.8313C35.3925 29.1988 36.22 28.63 37.1025 28.125H13.125V31.875ZM13.125 46.0125H24.42C24.545 45.3225 24.7075 44.6775 24.9075 44.0775C25.1075 43.4775 25.3125 42.8713 25.5225 42.2588H13.125V46.0125ZM6.06 60C4.38 60 2.95 59.41 1.77 58.23C0.590001 57.05 0 55.6213 0 53.9438V6.05625C0 4.38125 0.590001 2.9525 1.77 1.77C2.95 0.590001 4.38 0 6.06 0H53.9438C55.6188 0 57.0475 0.590001 58.23 1.77C59.41 2.95 60 4.38 60 6.06V24.7275C59.39 24.5175 58.7725 24.3488 58.1475 24.2213C57.5225 24.0938 56.89 23.9913 56.25 23.9138V6.06C56.25 5.4825 56.01 4.9525 55.53 4.47C55.05 3.9875 54.52 3.7475 53.94 3.75H6.06C5.4825 3.75 4.9525 3.99 4.47 4.47C3.9875 4.95 3.7475 5.48 3.75 6.06V53.9438C3.75 54.5188 3.99 55.0475 4.47 55.53C4.95 56.0125 5.47875 56.2525 6.05625 56.25H23.9138C23.9888 56.89 24.0912 57.5225 24.2213 58.1475C24.3463 58.7725 24.515 59.39 24.7275 60H6.06ZM52.5 70.095C48.515 70.095 44.975 68.89 41.88 66.48C38.785 64.07 36.705 61.045 35.64 57.405H39.1463C40.1488 60.2025 41.8388 62.465 44.2163 64.1925C46.5938 65.9175 49.355 66.78 52.5 66.78C56.4625 66.78 59.8325 65.39 62.61 62.61C65.39 59.8325 66.78 56.4625 66.78 52.5C66.78 48.5375 65.39 45.1675 62.61 42.39C59.83 39.6125 56.46 38.2225 52.5 38.22C50.2075 38.22 48.015 38.7775 45.9225 39.8925C43.8325 41.005 42.025 42.4675 40.5 44.28H47.595V47.595H34.905V34.905H38.22V41.835C40.005 39.7775 42.1425 38.1075 44.6325 36.825C47.1225 35.545 49.745 34.905 52.5 34.905C57.35 34.905 61.495 36.625 64.935 40.065C68.375 43.505 70.095 47.65 70.095 52.5C70.095 57.35 68.375 61.495 64.935 64.935C61.495 68.375 57.35 70.095 52.5 70.095Z" fill="#DE2300"/>
</svg>
