<svg width="72" height="65" viewBox="0 0 72 65" fill="none" xmlns="http://www.w3.org/2000/svg">
<path d="M1.71429 1.71048V0C1.25963 0 0.823594 0.180212 0.502103 0.50099C0.180612 0.821768 0 1.25684 0 1.71048H1.71429ZM39.4286 1.71048H41.1429C41.1429 1.25684 40.9622 0.821768 40.6408 0.50099C40.3193 0.180212 39.8832 0 39.4286 0V1.71048ZM39.4286 22.2363V20.5258C38.9739 20.5258 38.5379 20.706 38.2164 21.0268C37.8949 21.3476 37.7143 21.7826 37.7143 22.2363H39.4286ZM1.71429 3.42097H39.4286V0H1.71429V3.42097ZM37.7143 1.71048V56.446H41.1429V1.71048H37.7143ZM3.42857 49.604V1.71048H0V49.604H3.42857ZM39.4286 23.9468H56.5714V20.5258H39.4286V23.9468ZM68.5714 35.9202V49.604H72V35.9202H68.5714ZM41.1429 56.446V22.2363H37.7143V56.446H41.1429ZM60.2057 60.0722C59.2414 61.0332 57.9343 61.5729 56.5714 61.5729C55.2086 61.5729 53.9014 61.0332 52.9371 60.0722L50.5097 62.4943C51.3057 63.2887 52.2507 63.9188 53.2908 64.3488C54.3308 64.7787 55.4456 65 56.5714 65C57.6972 65 58.812 64.7787 59.8521 64.3488C60.8922 63.9188 61.8372 63.2887 62.6331 62.4943L60.2057 60.0722ZM52.9371 52.8198C53.9014 51.8588 55.2086 51.319 56.5714 51.319C57.9343 51.319 59.2414 51.8588 60.2057 52.8198L62.6331 50.3977C61.8372 49.6033 60.8922 48.9731 59.8521 48.5432C58.812 48.1133 57.6972 47.892 56.5714 47.892C55.4456 47.892 54.3308 48.1133 53.2908 48.5432C52.2507 48.9731 51.3057 49.6033 50.5097 50.3977L52.9371 52.8198ZM19.0629 60.0722C18.0986 61.0332 16.7914 61.5729 15.4286 61.5729C14.0657 61.5729 12.7586 61.0332 11.7943 60.0722L9.36686 62.4943C10.1628 63.2887 11.1078 63.9188 12.1479 64.3488C13.188 64.7787 14.3028 65 15.4286 65C16.5544 65 17.6692 64.7787 18.7092 64.3488C19.7493 63.9188 20.6943 63.2887 21.4903 62.4943L19.0629 60.0722ZM11.7943 52.8198C12.7586 51.8588 14.0657 51.319 15.4286 51.319C16.7914 51.319 18.0986 51.8588 19.0629 52.8198L21.4903 50.3977C20.6943 49.6033 19.7493 48.9731 18.7092 48.5432C17.6692 48.1133 16.5544 47.892 15.4286 47.892C14.3028 47.892 13.188 48.1133 12.1479 48.5432C11.1078 48.9731 10.1628 49.6033 9.36686 50.3977L11.7943 52.8198ZM60.2057 52.8198C61.2137 53.8187 61.7143 55.1289 61.7143 56.446H65.1429C65.1429 54.26 64.3063 52.0671 62.6331 50.3977L60.2057 52.8198ZM61.7143 56.446C61.7143 57.7631 61.2137 59.0733 60.2057 60.0722L62.6331 62.4943C63.429 61.6999 64.0603 60.757 64.4909 59.7192C64.9215 58.6814 65.1431 57.5692 65.1429 56.446H61.7143ZM49.7143 54.7355H39.4286V58.1565H49.7143V54.7355ZM52.9371 60.0722C51.9724 59.1108 51.4298 57.8065 51.4286 56.446H48C48 58.632 48.8366 60.8248 50.5097 62.4943L52.9371 60.0722ZM51.4286 56.446C51.4286 55.1289 51.9291 53.8187 52.9371 52.8198L50.5097 50.3977C49.7138 51.192 49.0826 52.135 48.6519 53.1728C48.2213 54.2105 47.9998 55.3228 48 56.446H51.4286ZM11.7943 60.0722C10.8295 59.1108 10.2869 57.8065 10.2857 56.446H6.85714C6.85714 58.632 7.69371 60.8248 9.36686 62.4943L11.7943 60.0722ZM10.2857 56.446C10.2857 55.1289 10.7863 53.8187 11.7943 52.8198L9.36686 50.3977C8.57098 51.192 7.9397 52.135 7.50908 53.1728C7.07846 54.2105 6.85693 55.3228 6.85714 56.446H10.2857ZM39.4286 54.7355H22.2857V58.1565H39.4286V54.7355ZM19.0629 52.8198C20.0709 53.8187 20.5714 55.1289 20.5714 56.446H24C24 54.26 23.1634 52.0671 21.4903 50.3977L19.0629 52.8198ZM20.5714 56.446C20.5714 57.7631 20.0709 59.0733 19.0629 60.0722L21.4903 62.4943C22.2862 61.6999 22.9174 60.757 23.3481 59.7192C23.7787 58.6814 24.0002 57.5692 24 56.446H20.5714ZM68.5714 49.604C68.5714 50.965 68.0296 52.2702 67.0651 53.2325C66.1006 54.1949 64.7925 54.7355 63.4286 54.7355V58.1565C65.7019 58.1565 67.882 57.2554 69.4895 55.6515C71.0969 54.0476 72 51.8723 72 49.604H68.5714ZM56.5714 23.9468C59.754 23.9468 62.8063 25.2083 65.0567 27.4537C67.3072 29.6992 68.5714 32.7446 68.5714 35.9202H72C72 31.8373 70.3745 27.9217 67.4811 25.0347C64.5877 22.1477 60.6633 20.5258 56.5714 20.5258V23.9468ZM0 49.604C0 51.8723 0.903059 54.0476 2.51051 55.6515C4.11797 57.2554 6.29814 58.1565 8.57143 58.1565V54.7355C7.20746 54.7355 5.89935 54.1949 4.93488 53.2325C3.97041 52.2702 3.42857 50.965 3.42857 49.604H0Z" fill="#DE2300"/>
</svg>
