<svg width="71" height="71" viewBox="0 0 71 71" fill="none" xmlns="http://www.w3.org/2000/svg">
<path d="M2 20.75V39.5C2 53.6412 2.00375 60.71 6.395 65.105C10.7862 69.5 17.8588 69.5 32 69.5H39.5C53.6412 69.5 60.71 69.4962 65.105 65.105C69.5 60.7137 69.5 53.6412 69.5 39.5V20.75M2 20.75H69.5M2 20.75L5.24375 13.5388C7.76375 7.94375 9.02 5.15 11.57 3.575C14.12 2 17.3938 2 23.9375 2H47.5625C54.1062 2 57.3763 2 59.93 3.575C62.48 5.15 63.7362 7.94375 66.2562 13.5388L69.5 20.75M35.75 20.75V2" stroke="#DE2300" stroke-width="3" stroke-linecap="round" stroke-linejoin="round"/>
<path d="M22.625 41.375H43.25C45.2391 41.375 47.1468 42.1652 48.5533 43.5717C49.9598 44.9782 50.75 46.8859 50.75 48.875C50.75 50.8641 49.9598 52.7718 48.5533 54.1783C47.1468 55.5848 45.2391 56.375 43.25 56.375H39.5M28.25 33.875L20.75 41.375L28.25 48.875" stroke="#DE2300" stroke-width="4" stroke-linecap="round" stroke-linejoin="round"/>
</svg>
