<svg width="83" height="53" viewBox="0 0 83 53" fill="none" xmlns="http://www.w3.org/2000/svg">
<path d="M13.2857 13.3077V5.01539C13.2857 3.35692 14.64 2 16.2952 2H77.9905C79.6457 2 81 3.35692 81 5.01539V36.6769C81 38.3354 79.6457 39.6923 77.9905 39.6923H69.7143M5.00952 13.3077H66.7048C67.5029 13.3077 68.2684 13.6254 68.8328 14.1909C69.3972 14.7564 69.7143 15.5233 69.7143 16.3231V47.9846C69.7143 48.7843 69.3972 49.5513 68.8328 50.1168C68.2684 50.6823 67.5029 51 66.7048 51H5.00952C4.21135 51 3.44586 50.6823 2.88147 50.1168C2.31707 49.5513 2 48.7843 2 47.9846V16.3231C2 15.5233 2.31707 14.7564 2.88147 14.1909C3.44586 13.6254 4.21135 13.3077 5.00952 13.3077ZM39.619 32.1538C39.619 33.1535 39.2227 34.1122 38.5172 34.8191C37.8117 35.526 36.8549 35.9231 35.8571 35.9231C34.8594 35.9231 33.9026 35.526 33.1971 34.8191C32.4916 34.1122 32.0952 33.1535 32.0952 32.1538C32.0952 31.1542 32.4916 30.1955 33.1971 29.4886C33.9026 28.7817 34.8594 28.3846 35.8571 28.3846C36.8549 28.3846 37.8117 28.7817 38.5172 29.4886C39.2227 30.1955 39.619 31.1542 39.619 32.1538Z" stroke="#DE2300" stroke-width="4" stroke-miterlimit="10" stroke-linejoin="round"/>
</svg>
